<svg width="14" height="20" viewBox="0 0 14 20" fill="none" xmlns="http://www.w3.org/2000/svg">
<g clip-path="url(#clip0_2396_23574)">
<path d="M7.2466 19.0137L13.2564 11.4235C13.3537 11.3006 13.2661 11.1196 13.1094 11.1196H0.680047C0.520438 11.1196 0.433814 11.3063 0.536886 11.4282L6.95643 19.0184C7.03292 19.1089 7.17307 19.1066 7.2466 19.0137Z" fill="white" stroke="black"/>
<path d="M13.1803 10.769L7.08507 7.86535C6.97895 7.81473 6.85526 7.8169 6.75095 7.87105L0.749031 10.9884C0.487476 11.1243 0.477656 11.4948 0.731649 11.6444L6.72251 15.1708C6.84195 15.2412 6.99043 15.2398 7.10861 15.1674L13.2149 11.4273C13.4686 11.2719 13.449 10.897 13.1803 10.769Z" fill="white" stroke="black"/>
<path d="M7.2466 11.9781L13.2564 4.38788C13.3537 4.26496 13.2661 4.08398 13.1094 4.08398H0.680047C0.520438 4.08398 0.433814 4.2707 0.536886 4.39256L6.95643 11.9828C7.03292 12.0732 7.17307 12.0709 7.2466 11.9781Z" fill="white" stroke="black"/>
<path d="M13.1804 3.73409L7.08507 0.830401C6.97895 0.779844 6.85526 0.781974 6.75095 0.836154L0.749031 3.95348C0.487476 4.08932 0.477656 4.45993 0.731649 4.60943L6.72251 8.1359C6.84195 8.20618 6.99043 8.2049 7.10861 8.13253L13.2149 4.39242C13.4687 4.23699 13.449 3.86207 13.1804 3.73409Z" fill="white" stroke="black"/>
</g>
<defs>
<clipPath id="clip0_2396_23574">
<rect width="14" height="20" fill="white"/>
</clipPath>
</defs>
</svg>
